<?xml version="1.0" encoding="UTF-8" standalone="no"?>
<!DOCTYPE svg PUBLIC "-//W3C//DTD SVG 1.1//EN"
 "http://www.w3.org/Graphics/SVG/1.1/DTD/svg11.dtd">
<!-- Generated by graphviz version 5.0.0 (20220707.1540)
 -->
<!-- Title: StorageDiagram Pages: 1 -->
<svg width="2203pt" height="762pt"
 viewBox="0.00 0.00 2202.71 761.60" xmlns="http://www.w3.org/2000/svg" xmlns:xlink="http://www.w3.org/1999/xlink">
<g id="graph0" class="graph" transform="scale(1 1) rotate(0) translate(4 757.6)">
<title>StorageDiagram</title>
<polygon fill="white" stroke="transparent" points="-4,4 -4,-757.6 2198.71,-757.6 2198.71,4 -4,4"/>
<!-- 6 -->
<g id="node1" class="node">
<title>6</title>
<polygon fill="#f2f2f2" stroke="black" points="0,-388.5 0,-562.1 943.74,-562.1 943.74,-388.5 0,-388.5"/>
<text text-anchor="middle" x="471.87" y="-545.5" font-family="Courier New" font-size="14.00">Store &lt;&lt;Contract&gt;&gt;</text>
<polyline fill="none" stroke="black" points="0,-537.3 943.74,-537.3 "/>
<text text-anchor="middle" x="24.8" y="-520.7" font-family="Courier New" font-size="14.00">slot</text>
<polyline fill="none" stroke="black" points="0,-512.5 49.61,-512.5 "/>
<text text-anchor="middle" x="24.8" y="-495.9" font-family="Courier New" font-size="14.00">0</text>
<polyline fill="none" stroke="black" points="0,-487.7 49.61,-487.7 "/>
<text text-anchor="middle" x="24.8" y="-471.1" font-family="Courier New" font-size="14.00">1</text>
<polyline fill="none" stroke="black" points="0,-462.9 49.61,-462.9 "/>
<text text-anchor="middle" x="24.8" y="-446.3" font-family="Courier New" font-size="14.00">2</text>
<polyline fill="none" stroke="black" points="0,-438.1 49.61,-438.1 "/>
<text text-anchor="middle" x="24.8" y="-421.5" font-family="Courier New" font-size="14.00">3</text>
<polyline fill="none" stroke="black" points="0,-413.3 49.61,-413.3 "/>
<text text-anchor="middle" x="24.8" y="-396.7" font-family="Courier New" font-size="14.00">4&#45;43</text>
<polyline fill="none" stroke="black" points="49.61,-388.5 49.61,-537.3 "/>
<text text-anchor="middle" x="496.67" y="-520.7" font-family="Courier New" font-size="14.00">type: &lt;inherited contract&gt;.variable (bytes)</text>
<polyline fill="none" stroke="black" points="49.61,-512.5 943.74,-512.5 "/>
<text text-anchor="middle" x="496.63" y="-495.9" font-family="Courier New" font-size="14.00">mapping(address=&gt;uint256): balances (32)</text>
<polyline fill="none" stroke="black" points="49.61,-487.7 943.74,-487.7 "/>
<text text-anchor="middle" x="496.62" y="-471.1" font-family="Courier New" font-size="14.00">uint256: number (32)</text>
<polyline fill="none" stroke="black" points="49.61,-462.9 943.74,-462.9 "/>
<text text-anchor="middle" x="120.62" y="-446.3" font-family="Courier New" font-size="14.00">unallocated (8)</text>
<polyline fill="none" stroke="black" points="191.63,-438.1 191.63,-462.9 "/>
<text text-anchor="middle" x="262.64" y="-446.3" font-family="Courier New" font-size="14.00">bool: flag3 (1)</text>
<polyline fill="none" stroke="black" points="333.65,-438.1 333.65,-462.9 "/>
<text text-anchor="middle" x="404.66" y="-446.3" font-family="Courier New" font-size="14.00">bool: flag2 (1)</text>
<polyline fill="none" stroke="black" points="475.67,-438.1 475.67,-462.9 "/>
<text text-anchor="middle" x="546.68" y="-446.3" font-family="Courier New" font-size="14.00">bool: flag1 (1)</text>
<polyline fill="none" stroke="black" points="617.69,-438.1 617.69,-462.9 "/>
<text text-anchor="middle" x="692.9" y="-446.3" font-family="Courier New" font-size="14.00">uint8: index (1)</text>
<polyline fill="none" stroke="black" points="768.11,-438.1 768.11,-462.9 "/>
<text text-anchor="middle" x="855.92" y="-446.3" font-family="Courier New" font-size="14.00">address: admin (20)</text>
<polyline fill="none" stroke="black" points="49.61,-438.1 943.74,-438.1 "/>
<text text-anchor="middle" x="264.32" y="-421.5" font-family="Courier New" font-size="14.00">unallocated (12)</text>
<polyline fill="none" stroke="black" points="479.03,-413.3 479.03,-438.1 "/>
<text text-anchor="middle" x="711.04" y="-421.5" font-family="Courier New" font-size="14.00">address: admin2 (20)</text>
<polyline fill="none" stroke="black" points="49.61,-413.3 943.74,-413.3 "/>
<text text-anchor="middle" x="496.33" y="-396.7" font-family="Courier New" font-size="14.00">payments[8]: topPayments (1280)</text>
</g>
<!-- 5 -->
<g id="node6" class="node">
<title>5</title>
<polygon fill="#f2f2f2" stroke="black" points="979.74,-314.5 979.74,-488.1 1281.38,-488.1 1281.38,-314.5 979.74,-314.5"/>
<text text-anchor="middle" x="1130.56" y="-471.5" font-family="Courier New" font-size="14.00">payments[8]: topPayments &lt;&lt;Array&gt;&gt;</text>
<polyline fill="none" stroke="black" points="979.74,-463.3 1281.38,-463.3 "/>
<text text-anchor="middle" x="1019.24" y="-446.7" font-family="Courier New" font-size="14.00">slot</text>
<polyline fill="none" stroke="black" points="979.74,-438.5 1058.74,-438.5 "/>
<text text-anchor="middle" x="1019.24" y="-421.9" font-family="Courier New" font-size="14.00">4&#45;8</text>
<polyline fill="none" stroke="black" points="979.74,-413.7 1058.74,-413.7 "/>
<text text-anchor="middle" x="1019.24" y="-397.1" font-family="Courier New" font-size="14.00">9&#45;14</text>
<polyline fill="none" stroke="black" points="979.74,-388.9 1058.74,-388.9 "/>
<text text-anchor="middle" x="1019.24" y="-372.3" font-family="Courier New" font-size="14.00">14&#45;34</text>
<polyline fill="none" stroke="black" points="979.74,-364.1 1058.74,-364.1 "/>
<text text-anchor="middle" x="1019.24" y="-347.5" font-family="Courier New" font-size="14.00">34&#45;39</text>
<polyline fill="none" stroke="black" points="979.74,-339.3 1058.74,-339.3 "/>
<text text-anchor="middle" x="1019.24" y="-322.7" font-family="Courier New" font-size="14.00">39&#45;44</text>
<polyline fill="none" stroke="black" points="1058.74,-314.5 1058.74,-463.3 "/>
<text text-anchor="middle" x="1169.66" y="-446.7" font-family="Courier New" font-size="14.00">type: variable (bytes)</text>
<polyline fill="none" stroke="black" points="1058.74,-438.5 1280.57,-438.5 "/>
<text text-anchor="middle" x="1169.55" y="-421.9" font-family="Courier New" font-size="14.00">payments (160)</text>
<polyline fill="none" stroke="black" points="1058.74,-413.7 1280.57,-413.7 "/>
<text text-anchor="middle" x="1169.55" y="-397.1" font-family="Courier New" font-size="14.00">payments (160)</text>
<polyline fill="none" stroke="black" points="1058.74,-388.9 1280.57,-388.9 "/>
<text text-anchor="middle" x="1169.25" y="-372.3" font-family="Courier New" font-size="14.00">&#45;&#45;&#45;&#45; (672)</text>
<polyline fill="none" stroke="black" points="1058.74,-364.1 1280.57,-364.1 "/>
<text text-anchor="middle" x="1169.55" y="-347.5" font-family="Courier New" font-size="14.00">payments (160)</text>
<polyline fill="none" stroke="black" points="1058.74,-339.3 1280.57,-339.3 "/>
<text text-anchor="middle" x="1169.55" y="-322.7" font-family="Courier New" font-size="14.00">payments (160)</text>
</g>
<!-- 6&#45;&gt;5 -->
<g id="edge1" class="edge">
<title>6:46&#45;&gt;5</title>
<path fill="none" stroke="black" d="M943.74,-401.3C952.14,-401.3 960.76,-401.3 969.46,-401.3"/>
<polygon fill="black" stroke="black" points="969.71,-404.8 979.71,-401.3 969.71,-397.8 969.71,-404.8"/>
</g>
<!-- 1 -->
<g id="node2" class="node">
<title>1</title>
<polygon fill="#f2f2f2" stroke="black" points="1317.38,-579.5 1317.38,-753.1 2194.71,-753.1 2194.71,-579.5 1317.38,-579.5"/>
<text text-anchor="middle" x="1756.05" y="-736.5" font-family="Courier New" font-size="14.00">payments &lt;&lt;Struct&gt;&gt;</text>
<polyline fill="none" stroke="black" points="1317.38,-728.3 2194.71,-728.3 "/>
<text text-anchor="middle" x="1342.18" y="-711.7" font-family="Courier New" font-size="14.00">slot</text>
<polyline fill="none" stroke="black" points="1317.38,-703.5 1366.99,-703.5 "/>
<text text-anchor="middle" x="1342.18" y="-686.9" font-family="Courier New" font-size="14.00">4</text>
<polyline fill="none" stroke="black" points="1317.38,-678.7 1366.99,-678.7 "/>
<text text-anchor="middle" x="1342.18" y="-662.1" font-family="Courier New" font-size="14.00">5</text>
<polyline fill="none" stroke="black" points="1317.38,-653.9 1366.99,-653.9 "/>
<text text-anchor="middle" x="1342.18" y="-637.3" font-family="Courier New" font-size="14.00">6</text>
<polyline fill="none" stroke="black" points="1317.38,-629.1 1366.99,-629.1 "/>
<text text-anchor="middle" x="1342.18" y="-612.5" font-family="Courier New" font-size="14.00">7</text>
<polyline fill="none" stroke="black" points="1317.38,-604.3 1366.99,-604.3 "/>
<text text-anchor="middle" x="1342.18" y="-587.7" font-family="Courier New" font-size="14.00">8</text>
<polyline fill="none" stroke="black" points="1366.99,-579.5 1366.99,-728.3 "/>
<text text-anchor="middle" x="1780.85" y="-711.7" font-family="Courier New" font-size="14.00">type: variable (bytes)</text>
<polyline fill="none" stroke="black" points="1366.99,-703.5 2194.71,-703.5 "/>
<text text-anchor="middle" x="1780.5" y="-686.9" font-family="Courier New" font-size="14.00">uint256: amount (32)</text>
<polyline fill="none" stroke="black" points="1366.99,-678.7 2194.71,-678.7 "/>
<text text-anchor="middle" x="1780.5" y="-662.1" font-family="Courier New" font-size="14.00">uint256: finalAmount (32)</text>
<polyline fill="none" stroke="black" points="1366.99,-653.9 2194.71,-653.9 "/>
<text text-anchor="middle" x="1780.41" y="-637.3" font-family="Courier New" font-size="14.00">uint256: initialAmount (32)</text>
<polyline fill="none" stroke="black" points="1366.99,-629.1 2194.71,-629.1 "/>
<text text-anchor="middle" x="1438" y="-612.5" font-family="Courier New" font-size="14.00">unallocated (9)</text>
<polyline fill="none" stroke="black" points="1509.01,-604.3 1509.01,-629.1 "/>
<text text-anchor="middle" x="1588.42" y="-612.5" font-family="Courier New" font-size="14.00">bool: checked (1)</text>
<polyline fill="none" stroke="black" points="1667.83,-604.3 1667.83,-629.1 "/>
<text text-anchor="middle" x="1738.84" y="-612.5" font-family="Courier New" font-size="14.00">bool: valid (1)</text>
<polyline fill="none" stroke="black" points="1809.85,-604.3 1809.85,-629.1 "/>
<text text-anchor="middle" x="1910.27" y="-612.5" font-family="Courier New" font-size="14.00">uint8: paymentType (1)</text>
<polyline fill="none" stroke="black" points="2010.68,-604.3 2010.68,-629.1 "/>
<text text-anchor="middle" x="2102.7" y="-612.5" font-family="Courier New" font-size="14.00">address: sender (20)</text>
<polyline fill="none" stroke="black" points="1366.99,-604.3 2194.71,-604.3 "/>
<text text-anchor="middle" x="1561.2" y="-587.7" font-family="Courier New" font-size="14.00">unallocated (12)</text>
<polyline fill="none" stroke="black" points="1755.41,-579.5 1755.41,-604.3 "/>
<text text-anchor="middle" x="1974.82" y="-587.7" font-family="Courier New" font-size="14.00">address: receiver (20)</text>
</g>
<!-- 2 -->
<g id="node3" class="node">
<title>2</title>
<polygon fill="#f2f2f2" stroke="black" points="1317.38,-386.5 1317.38,-560.1 2194.71,-560.1 2194.71,-386.5 1317.38,-386.5"/>
<text text-anchor="middle" x="1756.05" y="-543.5" font-family="Courier New" font-size="14.00">payments &lt;&lt;Struct&gt;&gt;</text>
<polyline fill="none" stroke="black" points="1317.38,-535.3 2194.71,-535.3 "/>
<text text-anchor="middle" x="1342.18" y="-518.7" font-family="Courier New" font-size="14.00">slot</text>
<polyline fill="none" stroke="black" points="1317.38,-510.5 1366.99,-510.5 "/>
<text text-anchor="middle" x="1342.18" y="-493.9" font-family="Courier New" font-size="14.00">9</text>
<polyline fill="none" stroke="black" points="1317.38,-485.7 1366.99,-485.7 "/>
<text text-anchor="middle" x="1342.18" y="-469.1" font-family="Courier New" font-size="14.00">10</text>
<polyline fill="none" stroke="black" points="1317.38,-460.9 1366.99,-460.9 "/>
<text text-anchor="middle" x="1342.18" y="-444.3" font-family="Courier New" font-size="14.00">11</text>
<polyline fill="none" stroke="black" points="1317.38,-436.1 1366.99,-436.1 "/>
<text text-anchor="middle" x="1342.18" y="-419.5" font-family="Courier New" font-size="14.00">12</text>
<polyline fill="none" stroke="black" points="1317.38,-411.3 1366.99,-411.3 "/>
<text text-anchor="middle" x="1342.18" y="-394.7" font-family="Courier New" font-size="14.00">13</text>
<polyline fill="none" stroke="black" points="1366.99,-386.5 1366.99,-535.3 "/>
<text text-anchor="middle" x="1780.85" y="-518.7" font-family="Courier New" font-size="14.00">type: variable (bytes)</text>
<polyline fill="none" stroke="black" points="1366.99,-510.5 2194.71,-510.5 "/>
<text text-anchor="middle" x="1780.5" y="-493.9" font-family="Courier New" font-size="14.00">uint256: amount (32)</text>
<polyline fill="none" stroke="black" points="1366.99,-485.7 2194.71,-485.7 "/>
<text text-anchor="middle" x="1780.5" y="-469.1" font-family="Courier New" font-size="14.00">uint256: finalAmount (32)</text>
<polyline fill="none" stroke="black" points="1366.99,-460.9 2194.71,-460.9 "/>
<text text-anchor="middle" x="1780.41" y="-444.3" font-family="Courier New" font-size="14.00">uint256: initialAmount (32)</text>
<polyline fill="none" stroke="black" points="1366.99,-436.1 2194.71,-436.1 "/>
<text text-anchor="middle" x="1438" y="-419.5" font-family="Courier New" font-size="14.00">unallocated (9)</text>
<polyline fill="none" stroke="black" points="1509.01,-411.3 1509.01,-436.1 "/>
<text text-anchor="middle" x="1588.42" y="-419.5" font-family="Courier New" font-size="14.00">bool: checked (1)</text>
<polyline fill="none" stroke="black" points="1667.83,-411.3 1667.83,-436.1 "/>
<text text-anchor="middle" x="1738.84" y="-419.5" font-family="Courier New" font-size="14.00">bool: valid (1)</text>
<polyline fill="none" stroke="black" points="1809.85,-411.3 1809.85,-436.1 "/>
<text text-anchor="middle" x="1910.27" y="-419.5" font-family="Courier New" font-size="14.00">uint8: paymentType (1)</text>
<polyline fill="none" stroke="black" points="2010.68,-411.3 2010.68,-436.1 "/>
<text text-anchor="middle" x="2102.7" y="-419.5" font-family="Courier New" font-size="14.00">address: sender (20)</text>
<polyline fill="none" stroke="black" points="1366.99,-411.3 2194.71,-411.3 "/>
<text text-anchor="middle" x="1561.2" y="-394.7" font-family="Courier New" font-size="14.00">unallocated (12)</text>
<polyline fill="none" stroke="black" points="1755.41,-386.5 1755.41,-411.3 "/>
<text text-anchor="middle" x="1974.82" y="-394.7" font-family="Courier New" font-size="14.00">address: receiver (20)</text>
</g>
<!-- 3 -->
<g id="node4" class="node">
<title>3</title>
<polygon fill="#f2f2f2" stroke="black" points="1317.38,-193.5 1317.38,-367.1 2194.71,-367.1 2194.71,-193.5 1317.38,-193.5"/>
<text text-anchor="middle" x="1756.05" y="-350.5" font-family="Courier New" font-size="14.00">payments &lt;&lt;Struct&gt;&gt;</text>
<polyline fill="none" stroke="black" points="1317.38,-342.3 2194.71,-342.3 "/>
<text text-anchor="middle" x="1342.18" y="-325.7" font-family="Courier New" font-size="14.00">slot</text>
<polyline fill="none" stroke="black" points="1317.38,-317.5 1366.99,-317.5 "/>
<text text-anchor="middle" x="1342.18" y="-300.9" font-family="Courier New" font-size="14.00">34</text>
<polyline fill="none" stroke="black" points="1317.38,-292.7 1366.99,-292.7 "/>
<text text-anchor="middle" x="1342.18" y="-276.1" font-family="Courier New" font-size="14.00">35</text>
<polyline fill="none" stroke="black" points="1317.38,-267.9 1366.99,-267.9 "/>
<text text-anchor="middle" x="1342.18" y="-251.3" font-family="Courier New" font-size="14.00">36</text>
<polyline fill="none" stroke="black" points="1317.38,-243.1 1366.99,-243.1 "/>
<text text-anchor="middle" x="1342.18" y="-226.5" font-family="Courier New" font-size="14.00">37</text>
<polyline fill="none" stroke="black" points="1317.38,-218.3 1366.99,-218.3 "/>
<text text-anchor="middle" x="1342.18" y="-201.7" font-family="Courier New" font-size="14.00">38</text>
<polyline fill="none" stroke="black" points="1366.99,-193.5 1366.99,-342.3 "/>
<text text-anchor="middle" x="1780.85" y="-325.7" font-family="Courier New" font-size="14.00">type: variable (bytes)</text>
<polyline fill="none" stroke="black" points="1366.99,-317.5 2194.71,-317.5 "/>
<text text-anchor="middle" x="1780.5" y="-300.9" font-family="Courier New" font-size="14.00">uint256: amount (32)</text>
<polyline fill="none" stroke="black" points="1366.99,-292.7 2194.71,-292.7 "/>
<text text-anchor="middle" x="1780.5" y="-276.1" font-family="Courier New" font-size="14.00">uint256: finalAmount (32)</text>
<polyline fill="none" stroke="black" points="1366.99,-267.9 2194.71,-267.9 "/>
<text text-anchor="middle" x="1780.41" y="-251.3" font-family="Courier New" font-size="14.00">uint256: initialAmount (32)</text>
<polyline fill="none" stroke="black" points="1366.99,-243.1 2194.71,-243.1 "/>
<text text-anchor="middle" x="1438" y="-226.5" font-family="Courier New" font-size="14.00">unallocated (9)</text>
<polyline fill="none" stroke="black" points="1509.01,-218.3 1509.01,-243.1 "/>
<text text-anchor="middle" x="1588.42" y="-226.5" font-family="Courier New" font-size="14.00">bool: checked (1)</text>
<polyline fill="none" stroke="black" points="1667.83,-218.3 1667.83,-243.1 "/>
<text text-anchor="middle" x="1738.84" y="-226.5" font-family="Courier New" font-size="14.00">bool: valid (1)</text>
<polyline fill="none" stroke="black" points="1809.85,-218.3 1809.85,-243.1 "/>
<text text-anchor="middle" x="1910.27" y="-226.5" font-family="Courier New" font-size="14.00">uint8: paymentType (1)</text>
<polyline fill="none" stroke="black" points="2010.68,-218.3 2010.68,-243.1 "/>
<text text-anchor="middle" x="2102.7" y="-226.5" font-family="Courier New" font-size="14.00">address: sender (20)</text>
<polyline fill="none" stroke="black" points="1366.99,-218.3 2194.71,-218.3 "/>
<text text-anchor="middle" x="1561.2" y="-201.7" font-family="Courier New" font-size="14.00">unallocated (12)</text>
<polyline fill="none" stroke="black" points="1755.41,-193.5 1755.41,-218.3 "/>
<text text-anchor="middle" x="1974.82" y="-201.7" font-family="Courier New" font-size="14.00">address: receiver (20)</text>
</g>
<!-- 4 -->
<g id="node5" class="node">
<title>4</title>
<polygon fill="#f2f2f2" stroke="black" points="1317.38,-0.5 1317.38,-174.1 2194.71,-174.1 2194.71,-0.5 1317.38,-0.5"/>
<text text-anchor="middle" x="1756.05" y="-157.5" font-family="Courier New" font-size="14.00">payments &lt;&lt;Struct&gt;&gt;</text>
<polyline fill="none" stroke="black" points="1317.38,-149.3 2194.71,-149.3 "/>
<text text-anchor="middle" x="1342.18" y="-132.7" font-family="Courier New" font-size="14.00">slot</text>
<polyline fill="none" stroke="black" points="1317.38,-124.5 1366.99,-124.5 "/>
<text text-anchor="middle" x="1342.18" y="-107.9" font-family="Courier New" font-size="14.00">39</text>
<polyline fill="none" stroke="black" points="1317.38,-99.7 1366.99,-99.7 "/>
<text text-anchor="middle" x="1342.18" y="-83.1" font-family="Courier New" font-size="14.00">40</text>
<polyline fill="none" stroke="black" points="1317.38,-74.9 1366.99,-74.9 "/>
<text text-anchor="middle" x="1342.18" y="-58.3" font-family="Courier New" font-size="14.00">41</text>
<polyline fill="none" stroke="black" points="1317.38,-50.1 1366.99,-50.1 "/>
<text text-anchor="middle" x="1342.18" y="-33.5" font-family="Courier New" font-size="14.00">42</text>
<polyline fill="none" stroke="black" points="1317.38,-25.3 1366.99,-25.3 "/>
<text text-anchor="middle" x="1342.18" y="-8.7" font-family="Courier New" font-size="14.00">43</text>
<polyline fill="none" stroke="black" points="1366.99,-0.5 1366.99,-149.3 "/>
<text text-anchor="middle" x="1780.85" y="-132.7" font-family="Courier New" font-size="14.00">type: variable (bytes)</text>
<polyline fill="none" stroke="black" points="1366.99,-124.5 2194.71,-124.5 "/>
<text text-anchor="middle" x="1780.5" y="-107.9" font-family="Courier New" font-size="14.00">uint256: amount (32)</text>
<polyline fill="none" stroke="black" points="1366.99,-99.7 2194.71,-99.7 "/>
<text text-anchor="middle" x="1780.5" y="-83.1" font-family="Courier New" font-size="14.00">uint256: finalAmount (32)</text>
<polyline fill="none" stroke="black" points="1366.99,-74.9 2194.71,-74.9 "/>
<text text-anchor="middle" x="1780.41" y="-58.3" font-family="Courier New" font-size="14.00">uint256: initialAmount (32)</text>
<polyline fill="none" stroke="black" points="1366.99,-50.1 2194.71,-50.1 "/>
<text text-anchor="middle" x="1438" y="-33.5" font-family="Courier New" font-size="14.00">unallocated (9)</text>
<polyline fill="none" stroke="black" points="1509.01,-25.3 1509.01,-50.1 "/>
<text text-anchor="middle" x="1588.42" y="-33.5" font-family="Courier New" font-size="14.00">bool: checked (1)</text>
<polyline fill="none" stroke="black" points="1667.83,-25.3 1667.83,-50.1 "/>
<text text-anchor="middle" x="1738.84" y="-33.5" font-family="Courier New" font-size="14.00">bool: valid (1)</text>
<polyline fill="none" stroke="black" points="1809.85,-25.3 1809.85,-50.1 "/>
<text text-anchor="middle" x="1910.27" y="-33.5" font-family="Courier New" font-size="14.00">uint8: paymentType (1)</text>
<polyline fill="none" stroke="black" points="2010.68,-25.3 2010.68,-50.1 "/>
<text text-anchor="middle" x="2102.7" y="-33.5" font-family="Courier New" font-size="14.00">address: sender (20)</text>
<polyline fill="none" stroke="black" points="1366.99,-25.3 2194.71,-25.3 "/>
<text text-anchor="middle" x="1561.2" y="-8.7" font-family="Courier New" font-size="14.00">unallocated (12)</text>
<polyline fill="none" stroke="black" points="1755.41,-0.5 1755.41,-25.3 "/>
<text text-anchor="middle" x="1974.82" y="-8.7" font-family="Courier New" font-size="14.00">address: receiver (20)</text>
</g>
<!-- 5&#45;&gt;1 -->
<g id="edge2" class="edge">
<title>5:17&#45;&gt;1</title>
<path fill="none" stroke="black" d="M1281.38,-426.3C1346.92,-426.3 1270.38,-523.62 1317.38,-569.3 1318.47,-570.36 1319.57,-571.41 1320.68,-572.45"/>
<polygon fill="black" stroke="black" points="1318.34,-575.05 1328.11,-579.15 1323.03,-569.85 1318.34,-575.05"/>
</g>
<!-- 5&#45;&gt;2 -->
<g id="edge3" class="edge">
<title>5:18&#45;&gt;2</title>
<path fill="none" stroke="black" d="M1281.38,-401.3C1289.9,-401.3 1298.5,-401.42 1307.15,-401.64"/>
<polygon fill="black" stroke="black" points="1307.23,-405.14 1317.33,-401.94 1307.44,-398.14 1307.23,-405.14"/>
</g>
<!-- 5&#45;&gt;3 -->
<g id="edge4" class="edge">
<title>5:20&#45;&gt;3</title>
<path fill="none" stroke="black" d="M1281.38,-351.3C1289.9,-351.3 1298.49,-351.19 1307.14,-350.97"/>
<polygon fill="black" stroke="black" points="1307.43,-354.46 1317.32,-350.66 1307.22,-347.46 1307.43,-354.46"/>
</g>
<!-- 5&#45;&gt;4 -->
<g id="edge5" class="edge">
<title>5:21&#45;&gt;4</title>
<path fill="none" stroke="black" d="M1281.38,-327.3C1346.92,-327.3 1270.38,-229.98 1317.38,-184.3 1318.47,-183.24 1319.57,-182.19 1320.68,-181.15"/>
<polygon fill="black" stroke="black" points="1323.03,-183.75 1328.11,-174.45 1318.34,-178.55 1323.03,-183.75"/>
</g>
</g>
</svg>
