<?xml version="1.0" encoding="UTF-8" standalone="no"?>
<!DOCTYPE svg PUBLIC "-//W3C//DTD SVG 1.1//EN"
 "http://www.w3.org/Graphics/SVG/1.1/DTD/svg11.dtd">
<!-- Generated by graphviz version 5.0.0 (20220707.1540)
 -->
<!-- Title: StorageDiagram Pages: 1 -->
<svg width="1635pt" height="958pt"
 viewBox="0.00 0.00 1634.63 958.20" xmlns="http://www.w3.org/2000/svg" xmlns:xlink="http://www.w3.org/1999/xlink">
<g id="graph0" class="graph" transform="scale(1 1) rotate(0) translate(4 954.2)">
<title>StorageDiagram</title>
<polygon fill="white" stroke="transparent" points="-4,4 -4,-954.2 1630.63,-954.2 1630.63,4 -4,4"/>
<!-- 6 -->
<g id="node1" class="node">
<title>6</title>
<polygon fill="#f2f2f2" stroke="black" points="0,-487.9 0,-686.3 668.1,-686.3 668.1,-487.9 0,-487.9"/>
<text text-anchor="middle" x="334.05" y="-669.7" font-family="Courier New" font-size="14.00">Store &lt;&lt;Contract&gt;&gt;</text>
<polyline fill="none" stroke="black" points="0,-661.5 668.1,-661.5 "/>
<text text-anchor="middle" x="24.8" y="-644.9" font-family="Courier New" font-size="14.00">slot</text>
<polyline fill="none" stroke="black" points="0,-636.7 49.61,-636.7 "/>
<text text-anchor="middle" x="24.8" y="-620.1" font-family="Courier New" font-size="14.00">0</text>
<polyline fill="none" stroke="black" points="0,-611.9 49.61,-611.9 "/>
<text text-anchor="middle" x="24.8" y="-595.3" font-family="Courier New" font-size="14.00">1</text>
<polyline fill="none" stroke="black" points="0,-587.1 49.61,-587.1 "/>
<text text-anchor="middle" x="24.8" y="-570.5" font-family="Courier New" font-size="14.00">2</text>
<polyline fill="none" stroke="black" points="0,-562.3 49.61,-562.3 "/>
<text text-anchor="middle" x="24.8" y="-545.7" font-family="Courier New" font-size="14.00">3</text>
<polyline fill="none" stroke="black" points="0,-537.5 49.61,-537.5 "/>
<text text-anchor="middle" x="24.8" y="-520.9" font-family="Courier New" font-size="14.00">4</text>
<polyline fill="none" stroke="black" points="0,-512.7 49.61,-512.7 "/>
<text text-anchor="middle" x="24.8" y="-496.1" font-family="Courier New" font-size="14.00">5&#45;60</text>
<polyline fill="none" stroke="black" points="49.61,-487.9 49.61,-661.5 "/>
<text text-anchor="middle" x="358.85" y="-644.9" font-family="Courier New" font-size="14.00">type: &lt;inherited contract&gt;.variable (bytes)</text>
<polyline fill="none" stroke="black" points="49.61,-636.7 668.1,-636.7 "/>
<text text-anchor="middle" x="203.82" y="-620.1" font-family="Courier New" font-size="14.00">unallocated (31)</text>
<polyline fill="none" stroke="black" points="358.03,-611.9 358.03,-636.7 "/>
<text text-anchor="middle" x="512.74" y="-620.1" font-family="Courier New" font-size="14.00">uint8: index (1)</text>
<polyline fill="none" stroke="black" points="49.61,-611.9 668.1,-611.9 "/>
<text text-anchor="middle" x="358.62" y="-595.3" font-family="Courier New" font-size="14.00">uint256: number (32)</text>
<polyline fill="none" stroke="black" points="49.61,-587.1 668.1,-587.1 "/>
<text text-anchor="middle" x="149.82" y="-570.5" font-family="Courier New" font-size="14.00">unallocated (11)</text>
<polyline fill="none" stroke="black" points="250.03,-562.3 250.03,-587.1 "/>
<text text-anchor="middle" x="362.84" y="-570.5" font-family="Courier New" font-size="14.00">address: admin (20)</text>
<polyline fill="none" stroke="black" points="475.65,-562.3 475.65,-587.1 "/>
<text text-anchor="middle" x="571.66" y="-570.5" font-family="Courier New" font-size="14.00">bool: flag1 (1)</text>
<polyline fill="none" stroke="black" points="49.61,-562.3 668.1,-562.3 "/>
<text text-anchor="middle" x="358.63" y="-545.7" font-family="Courier New" font-size="14.00">mapping(address=&gt;uint256): balances (32)</text>
<polyline fill="none" stroke="black" points="49.61,-537.5 668.1,-537.5 "/>
<text text-anchor="middle" x="124.82" y="-520.9" font-family="Courier New" font-size="14.00">unallocated (10)</text>
<polyline fill="none" stroke="black" points="200.03,-512.7 200.03,-537.5 "/>
<text text-anchor="middle" x="271.04" y="-520.9" font-family="Courier New" font-size="14.00">bool: flag3 (1)</text>
<polyline fill="none" stroke="black" points="342.05,-512.7 342.05,-537.5 "/>
<text text-anchor="middle" x="434.06" y="-520.9" font-family="Courier New" font-size="14.00">address: admin2 (20)</text>
<polyline fill="none" stroke="black" points="526.08,-512.7 526.08,-537.5 "/>
<text text-anchor="middle" x="597.09" y="-520.9" font-family="Courier New" font-size="14.00">bool: flag2 (1)</text>
<polyline fill="none" stroke="black" points="49.61,-512.7 668.1,-512.7 "/>
<text text-anchor="middle" x="358.83" y="-496.1" font-family="Courier New" font-size="14.00">payments[8]: topPayments (1792)</text>
</g>
<!-- 5 -->
<g id="node6" class="node">
<title>5</title>
<polygon fill="#f2f2f2" stroke="black" points="704.1,-413.3 704.1,-586.9 1005.74,-586.9 1005.74,-413.3 704.1,-413.3"/>
<text text-anchor="middle" x="854.92" y="-570.3" font-family="Courier New" font-size="14.00">payments[8]: topPayments &lt;&lt;Array&gt;&gt;</text>
<polyline fill="none" stroke="black" points="704.1,-562.1 1005.74,-562.1 "/>
<text text-anchor="middle" x="743.6" y="-545.5" font-family="Courier New" font-size="14.00">slot</text>
<polyline fill="none" stroke="black" points="704.1,-537.3 783.1,-537.3 "/>
<text text-anchor="middle" x="743.6" y="-520.7" font-family="Courier New" font-size="14.00">5&#45;11</text>
<polyline fill="none" stroke="black" points="704.1,-512.5 783.1,-512.5 "/>
<text text-anchor="middle" x="743.6" y="-495.9" font-family="Courier New" font-size="14.00">12&#45;19</text>
<polyline fill="none" stroke="black" points="704.1,-487.7 783.1,-487.7 "/>
<text text-anchor="middle" x="743.6" y="-471.1" font-family="Courier New" font-size="14.00">19&#45;47</text>
<polyline fill="none" stroke="black" points="704.1,-462.9 783.1,-462.9 "/>
<text text-anchor="middle" x="743.6" y="-446.3" font-family="Courier New" font-size="14.00">47&#45;54</text>
<polyline fill="none" stroke="black" points="704.1,-438.1 783.1,-438.1 "/>
<text text-anchor="middle" x="743.6" y="-421.5" font-family="Courier New" font-size="14.00">54&#45;61</text>
<polyline fill="none" stroke="black" points="783.1,-413.3 783.1,-562.1 "/>
<text text-anchor="middle" x="894.02" y="-545.5" font-family="Courier New" font-size="14.00">type: variable (bytes)</text>
<polyline fill="none" stroke="black" points="783.1,-537.3 1004.93,-537.3 "/>
<text text-anchor="middle" x="893.91" y="-520.7" font-family="Courier New" font-size="14.00">payments (224)</text>
<polyline fill="none" stroke="black" points="783.1,-512.5 1004.93,-512.5 "/>
<text text-anchor="middle" x="893.91" y="-495.9" font-family="Courier New" font-size="14.00">payments (224)</text>
<polyline fill="none" stroke="black" points="783.1,-487.7 1004.93,-487.7 "/>
<text text-anchor="middle" x="893.61" y="-471.1" font-family="Courier New" font-size="14.00">&#45;&#45;&#45;&#45; (928)</text>
<polyline fill="none" stroke="black" points="783.1,-462.9 1004.93,-462.9 "/>
<text text-anchor="middle" x="893.91" y="-446.3" font-family="Courier New" font-size="14.00">payments (224)</text>
<polyline fill="none" stroke="black" points="783.1,-438.1 1004.93,-438.1 "/>
<text text-anchor="middle" x="893.91" y="-421.5" font-family="Courier New" font-size="14.00">payments (224)</text>
</g>
<!-- 6&#45;&gt;5 -->
<g id="edge1" class="edge">
<title>6:46&#45;&gt;5</title>
<path fill="none" stroke="black" d="M668.1,-500.1C676.5,-500.1 685.12,-500.1 693.82,-500.1"/>
<polygon fill="black" stroke="black" points="694.07,-503.6 704.07,-500.1 694.07,-496.6 694.07,-503.6"/>
</g>
<!-- 1 -->
<g id="node2" class="node">
<title>1</title>
<polygon fill="#f2f2f2" stroke="black" points="1041.74,-726.5 1041.74,-949.7 1626.63,-949.7 1626.63,-726.5 1041.74,-726.5"/>
<text text-anchor="middle" x="1334.18" y="-933.1" font-family="Courier New" font-size="14.00">payments &lt;&lt;Struct&gt;&gt;</text>
<polyline fill="none" stroke="black" points="1041.74,-924.9 1626.63,-924.9 "/>
<text text-anchor="middle" x="1066.54" y="-908.3" font-family="Courier New" font-size="14.00">slot</text>
<polyline fill="none" stroke="black" points="1041.74,-900.1 1091.35,-900.1 "/>
<text text-anchor="middle" x="1066.54" y="-883.5" font-family="Courier New" font-size="14.00">5</text>
<polyline fill="none" stroke="black" points="1041.74,-875.3 1091.35,-875.3 "/>
<text text-anchor="middle" x="1066.54" y="-858.7" font-family="Courier New" font-size="14.00">6</text>
<polyline fill="none" stroke="black" points="1041.74,-850.5 1091.35,-850.5 "/>
<text text-anchor="middle" x="1066.54" y="-833.9" font-family="Courier New" font-size="14.00">7</text>
<polyline fill="none" stroke="black" points="1041.74,-825.7 1091.35,-825.7 "/>
<text text-anchor="middle" x="1066.54" y="-809.1" font-family="Courier New" font-size="14.00">8</text>
<polyline fill="none" stroke="black" points="1041.74,-800.9 1091.35,-800.9 "/>
<text text-anchor="middle" x="1066.54" y="-784.3" font-family="Courier New" font-size="14.00">9</text>
<polyline fill="none" stroke="black" points="1041.74,-776.1 1091.35,-776.1 "/>
<text text-anchor="middle" x="1066.54" y="-759.5" font-family="Courier New" font-size="14.00">10</text>
<polyline fill="none" stroke="black" points="1041.74,-751.3 1091.35,-751.3 "/>
<text text-anchor="middle" x="1066.54" y="-734.7" font-family="Courier New" font-size="14.00">11</text>
<polyline fill="none" stroke="black" points="1091.35,-726.5 1091.35,-924.9 "/>
<text text-anchor="middle" x="1358.99" y="-908.3" font-family="Courier New" font-size="14.00">type: variable (bytes)</text>
<polyline fill="none" stroke="black" points="1091.35,-900.1 1626.63,-900.1 "/>
<text text-anchor="middle" x="1227.06" y="-883.5" font-family="Courier New" font-size="14.00">unallocated (31)</text>
<polyline fill="none" stroke="black" points="1362.77,-875.3 1362.77,-900.1 "/>
<text text-anchor="middle" x="1494.28" y="-883.5" font-family="Courier New" font-size="14.00">bool: valid (1)</text>
<polyline fill="none" stroke="black" points="1091.35,-875.3 1626.63,-875.3 "/>
<text text-anchor="middle" x="1358.86" y="-858.7" font-family="Courier New" font-size="14.00">uint256: amount (32)</text>
<polyline fill="none" stroke="black" points="1091.35,-850.5 1626.63,-850.5 "/>
<text text-anchor="middle" x="1166.56" y="-833.9" font-family="Courier New" font-size="14.00">unallocated (11)</text>
<polyline fill="none" stroke="black" points="1241.77,-825.7 1241.77,-850.5 "/>
<text text-anchor="middle" x="1342.18" y="-833.9" font-family="Courier New" font-size="14.00">uint8: paymentType (1)</text>
<polyline fill="none" stroke="black" points="1442.6,-825.7 1442.6,-850.5 "/>
<text text-anchor="middle" x="1534.61" y="-833.9" font-family="Courier New" font-size="14.00">address: sender (20)</text>
<polyline fill="none" stroke="black" points="1091.35,-825.7 1626.63,-825.7 "/>
<text text-anchor="middle" x="1358.86" y="-809.1" font-family="Courier New" font-size="14.00">uint256: finalAmount (32)</text>
<polyline fill="none" stroke="black" points="1091.35,-800.9 1626.63,-800.9 "/>
<text text-anchor="middle" x="1212.56" y="-784.3" font-family="Courier New" font-size="14.00">unallocated (12)</text>
<polyline fill="none" stroke="black" points="1333.77,-776.1 1333.77,-800.9 "/>
<text text-anchor="middle" x="1480.18" y="-784.3" font-family="Courier New" font-size="14.00">address: receiver (20)</text>
<polyline fill="none" stroke="black" points="1091.35,-776.1 1626.63,-776.1 "/>
<text text-anchor="middle" x="1358.77" y="-759.5" font-family="Courier New" font-size="14.00">uint256: initialAmount (32)</text>
<polyline fill="none" stroke="black" points="1091.35,-751.3 1626.63,-751.3 "/>
<text text-anchor="middle" x="1223.06" y="-734.7" font-family="Courier New" font-size="14.00">unallocated (31)</text>
<polyline fill="none" stroke="black" points="1354.77,-726.5 1354.77,-751.3 "/>
<text text-anchor="middle" x="1490.68" y="-734.7" font-family="Courier New" font-size="14.00">bool: checked (1)</text>
</g>
<!-- 2 -->
<g id="node3" class="node">
<title>2</title>
<polygon fill="#f2f2f2" stroke="black" points="1041.74,-484.5 1041.74,-707.7 1626.63,-707.7 1626.63,-484.5 1041.74,-484.5"/>
<text text-anchor="middle" x="1334.18" y="-691.1" font-family="Courier New" font-size="14.00">payments &lt;&lt;Struct&gt;&gt;</text>
<polyline fill="none" stroke="black" points="1041.74,-682.9 1626.63,-682.9 "/>
<text text-anchor="middle" x="1066.54" y="-666.3" font-family="Courier New" font-size="14.00">slot</text>
<polyline fill="none" stroke="black" points="1041.74,-658.1 1091.35,-658.1 "/>
<text text-anchor="middle" x="1066.54" y="-641.5" font-family="Courier New" font-size="14.00">12</text>
<polyline fill="none" stroke="black" points="1041.74,-633.3 1091.35,-633.3 "/>
<text text-anchor="middle" x="1066.54" y="-616.7" font-family="Courier New" font-size="14.00">13</text>
<polyline fill="none" stroke="black" points="1041.74,-608.5 1091.35,-608.5 "/>
<text text-anchor="middle" x="1066.54" y="-591.9" font-family="Courier New" font-size="14.00">14</text>
<polyline fill="none" stroke="black" points="1041.74,-583.7 1091.35,-583.7 "/>
<text text-anchor="middle" x="1066.54" y="-567.1" font-family="Courier New" font-size="14.00">15</text>
<polyline fill="none" stroke="black" points="1041.74,-558.9 1091.35,-558.9 "/>
<text text-anchor="middle" x="1066.54" y="-542.3" font-family="Courier New" font-size="14.00">16</text>
<polyline fill="none" stroke="black" points="1041.74,-534.1 1091.35,-534.1 "/>
<text text-anchor="middle" x="1066.54" y="-517.5" font-family="Courier New" font-size="14.00">17</text>
<polyline fill="none" stroke="black" points="1041.74,-509.3 1091.35,-509.3 "/>
<text text-anchor="middle" x="1066.54" y="-492.7" font-family="Courier New" font-size="14.00">18</text>
<polyline fill="none" stroke="black" points="1091.35,-484.5 1091.35,-682.9 "/>
<text text-anchor="middle" x="1358.99" y="-666.3" font-family="Courier New" font-size="14.00">type: variable (bytes)</text>
<polyline fill="none" stroke="black" points="1091.35,-658.1 1626.63,-658.1 "/>
<text text-anchor="middle" x="1227.06" y="-641.5" font-family="Courier New" font-size="14.00">unallocated (31)</text>
<polyline fill="none" stroke="black" points="1362.77,-633.3 1362.77,-658.1 "/>
<text text-anchor="middle" x="1494.28" y="-641.5" font-family="Courier New" font-size="14.00">bool: valid (1)</text>
<polyline fill="none" stroke="black" points="1091.35,-633.3 1626.63,-633.3 "/>
<text text-anchor="middle" x="1358.86" y="-616.7" font-family="Courier New" font-size="14.00">uint256: amount (32)</text>
<polyline fill="none" stroke="black" points="1091.35,-608.5 1626.63,-608.5 "/>
<text text-anchor="middle" x="1166.56" y="-591.9" font-family="Courier New" font-size="14.00">unallocated (11)</text>
<polyline fill="none" stroke="black" points="1241.77,-583.7 1241.77,-608.5 "/>
<text text-anchor="middle" x="1342.18" y="-591.9" font-family="Courier New" font-size="14.00">uint8: paymentType (1)</text>
<polyline fill="none" stroke="black" points="1442.6,-583.7 1442.6,-608.5 "/>
<text text-anchor="middle" x="1534.61" y="-591.9" font-family="Courier New" font-size="14.00">address: sender (20)</text>
<polyline fill="none" stroke="black" points="1091.35,-583.7 1626.63,-583.7 "/>
<text text-anchor="middle" x="1358.86" y="-567.1" font-family="Courier New" font-size="14.00">uint256: finalAmount (32)</text>
<polyline fill="none" stroke="black" points="1091.35,-558.9 1626.63,-558.9 "/>
<text text-anchor="middle" x="1212.56" y="-542.3" font-family="Courier New" font-size="14.00">unallocated (12)</text>
<polyline fill="none" stroke="black" points="1333.77,-534.1 1333.77,-558.9 "/>
<text text-anchor="middle" x="1480.18" y="-542.3" font-family="Courier New" font-size="14.00">address: receiver (20)</text>
<polyline fill="none" stroke="black" points="1091.35,-534.1 1626.63,-534.1 "/>
<text text-anchor="middle" x="1358.77" y="-517.5" font-family="Courier New" font-size="14.00">uint256: initialAmount (32)</text>
<polyline fill="none" stroke="black" points="1091.35,-509.3 1626.63,-509.3 "/>
<text text-anchor="middle" x="1223.06" y="-492.7" font-family="Courier New" font-size="14.00">unallocated (31)</text>
<polyline fill="none" stroke="black" points="1354.77,-484.5 1354.77,-509.3 "/>
<text text-anchor="middle" x="1490.68" y="-492.7" font-family="Courier New" font-size="14.00">bool: checked (1)</text>
</g>
<!-- 3 -->
<g id="node4" class="node">
<title>3</title>
<polygon fill="#f2f2f2" stroke="black" points="1041.74,-242.5 1041.74,-465.7 1626.63,-465.7 1626.63,-242.5 1041.74,-242.5"/>
<text text-anchor="middle" x="1334.18" y="-449.1" font-family="Courier New" font-size="14.00">payments &lt;&lt;Struct&gt;&gt;</text>
<polyline fill="none" stroke="black" points="1041.74,-440.9 1626.63,-440.9 "/>
<text text-anchor="middle" x="1066.54" y="-424.3" font-family="Courier New" font-size="14.00">slot</text>
<polyline fill="none" stroke="black" points="1041.74,-416.1 1091.35,-416.1 "/>
<text text-anchor="middle" x="1066.54" y="-399.5" font-family="Courier New" font-size="14.00">47</text>
<polyline fill="none" stroke="black" points="1041.74,-391.3 1091.35,-391.3 "/>
<text text-anchor="middle" x="1066.54" y="-374.7" font-family="Courier New" font-size="14.00">48</text>
<polyline fill="none" stroke="black" points="1041.74,-366.5 1091.35,-366.5 "/>
<text text-anchor="middle" x="1066.54" y="-349.9" font-family="Courier New" font-size="14.00">49</text>
<polyline fill="none" stroke="black" points="1041.74,-341.7 1091.35,-341.7 "/>
<text text-anchor="middle" x="1066.54" y="-325.1" font-family="Courier New" font-size="14.00">50</text>
<polyline fill="none" stroke="black" points="1041.74,-316.9 1091.35,-316.9 "/>
<text text-anchor="middle" x="1066.54" y="-300.3" font-family="Courier New" font-size="14.00">51</text>
<polyline fill="none" stroke="black" points="1041.74,-292.1 1091.35,-292.1 "/>
<text text-anchor="middle" x="1066.54" y="-275.5" font-family="Courier New" font-size="14.00">52</text>
<polyline fill="none" stroke="black" points="1041.74,-267.3 1091.35,-267.3 "/>
<text text-anchor="middle" x="1066.54" y="-250.7" font-family="Courier New" font-size="14.00">53</text>
<polyline fill="none" stroke="black" points="1091.35,-242.5 1091.35,-440.9 "/>
<text text-anchor="middle" x="1358.99" y="-424.3" font-family="Courier New" font-size="14.00">type: variable (bytes)</text>
<polyline fill="none" stroke="black" points="1091.35,-416.1 1626.63,-416.1 "/>
<text text-anchor="middle" x="1227.06" y="-399.5" font-family="Courier New" font-size="14.00">unallocated (31)</text>
<polyline fill="none" stroke="black" points="1362.77,-391.3 1362.77,-416.1 "/>
<text text-anchor="middle" x="1494.28" y="-399.5" font-family="Courier New" font-size="14.00">bool: valid (1)</text>
<polyline fill="none" stroke="black" points="1091.35,-391.3 1626.63,-391.3 "/>
<text text-anchor="middle" x="1358.86" y="-374.7" font-family="Courier New" font-size="14.00">uint256: amount (32)</text>
<polyline fill="none" stroke="black" points="1091.35,-366.5 1626.63,-366.5 "/>
<text text-anchor="middle" x="1166.56" y="-349.9" font-family="Courier New" font-size="14.00">unallocated (11)</text>
<polyline fill="none" stroke="black" points="1241.77,-341.7 1241.77,-366.5 "/>
<text text-anchor="middle" x="1342.18" y="-349.9" font-family="Courier New" font-size="14.00">uint8: paymentType (1)</text>
<polyline fill="none" stroke="black" points="1442.6,-341.7 1442.6,-366.5 "/>
<text text-anchor="middle" x="1534.61" y="-349.9" font-family="Courier New" font-size="14.00">address: sender (20)</text>
<polyline fill="none" stroke="black" points="1091.35,-341.7 1626.63,-341.7 "/>
<text text-anchor="middle" x="1358.86" y="-325.1" font-family="Courier New" font-size="14.00">uint256: finalAmount (32)</text>
<polyline fill="none" stroke="black" points="1091.35,-316.9 1626.63,-316.9 "/>
<text text-anchor="middle" x="1212.56" y="-300.3" font-family="Courier New" font-size="14.00">unallocated (12)</text>
<polyline fill="none" stroke="black" points="1333.77,-292.1 1333.77,-316.9 "/>
<text text-anchor="middle" x="1480.18" y="-300.3" font-family="Courier New" font-size="14.00">address: receiver (20)</text>
<polyline fill="none" stroke="black" points="1091.35,-292.1 1626.63,-292.1 "/>
<text text-anchor="middle" x="1358.77" y="-275.5" font-family="Courier New" font-size="14.00">uint256: initialAmount (32)</text>
<polyline fill="none" stroke="black" points="1091.35,-267.3 1626.63,-267.3 "/>
<text text-anchor="middle" x="1223.06" y="-250.7" font-family="Courier New" font-size="14.00">unallocated (31)</text>
<polyline fill="none" stroke="black" points="1354.77,-242.5 1354.77,-267.3 "/>
<text text-anchor="middle" x="1490.68" y="-250.7" font-family="Courier New" font-size="14.00">bool: checked (1)</text>
</g>
<!-- 4 -->
<g id="node5" class="node">
<title>4</title>
<polygon fill="#f2f2f2" stroke="black" points="1041.74,-0.5 1041.74,-223.7 1626.63,-223.7 1626.63,-0.5 1041.74,-0.5"/>
<text text-anchor="middle" x="1334.18" y="-207.1" font-family="Courier New" font-size="14.00">payments &lt;&lt;Struct&gt;&gt;</text>
<polyline fill="none" stroke="black" points="1041.74,-198.9 1626.63,-198.9 "/>
<text text-anchor="middle" x="1066.54" y="-182.3" font-family="Courier New" font-size="14.00">slot</text>
<polyline fill="none" stroke="black" points="1041.74,-174.1 1091.35,-174.1 "/>
<text text-anchor="middle" x="1066.54" y="-157.5" font-family="Courier New" font-size="14.00">54</text>
<polyline fill="none" stroke="black" points="1041.74,-149.3 1091.35,-149.3 "/>
<text text-anchor="middle" x="1066.54" y="-132.7" font-family="Courier New" font-size="14.00">55</text>
<polyline fill="none" stroke="black" points="1041.74,-124.5 1091.35,-124.5 "/>
<text text-anchor="middle" x="1066.54" y="-107.9" font-family="Courier New" font-size="14.00">56</text>
<polyline fill="none" stroke="black" points="1041.74,-99.7 1091.35,-99.7 "/>
<text text-anchor="middle" x="1066.54" y="-83.1" font-family="Courier New" font-size="14.00">57</text>
<polyline fill="none" stroke="black" points="1041.74,-74.9 1091.35,-74.9 "/>
<text text-anchor="middle" x="1066.54" y="-58.3" font-family="Courier New" font-size="14.00">58</text>
<polyline fill="none" stroke="black" points="1041.74,-50.1 1091.35,-50.1 "/>
<text text-anchor="middle" x="1066.54" y="-33.5" font-family="Courier New" font-size="14.00">59</text>
<polyline fill="none" stroke="black" points="1041.74,-25.3 1091.35,-25.3 "/>
<text text-anchor="middle" x="1066.54" y="-8.7" font-family="Courier New" font-size="14.00">60</text>
<polyline fill="none" stroke="black" points="1091.35,-0.5 1091.35,-198.9 "/>
<text text-anchor="middle" x="1358.99" y="-182.3" font-family="Courier New" font-size="14.00">type: variable (bytes)</text>
<polyline fill="none" stroke="black" points="1091.35,-174.1 1626.63,-174.1 "/>
<text text-anchor="middle" x="1227.06" y="-157.5" font-family="Courier New" font-size="14.00">unallocated (31)</text>
<polyline fill="none" stroke="black" points="1362.77,-149.3 1362.77,-174.1 "/>
<text text-anchor="middle" x="1494.28" y="-157.5" font-family="Courier New" font-size="14.00">bool: valid (1)</text>
<polyline fill="none" stroke="black" points="1091.35,-149.3 1626.63,-149.3 "/>
<text text-anchor="middle" x="1358.86" y="-132.7" font-family="Courier New" font-size="14.00">uint256: amount (32)</text>
<polyline fill="none" stroke="black" points="1091.35,-124.5 1626.63,-124.5 "/>
<text text-anchor="middle" x="1166.56" y="-107.9" font-family="Courier New" font-size="14.00">unallocated (11)</text>
<polyline fill="none" stroke="black" points="1241.77,-99.7 1241.77,-124.5 "/>
<text text-anchor="middle" x="1342.18" y="-107.9" font-family="Courier New" font-size="14.00">uint8: paymentType (1)</text>
<polyline fill="none" stroke="black" points="1442.6,-99.7 1442.6,-124.5 "/>
<text text-anchor="middle" x="1534.61" y="-107.9" font-family="Courier New" font-size="14.00">address: sender (20)</text>
<polyline fill="none" stroke="black" points="1091.35,-99.7 1626.63,-99.7 "/>
<text text-anchor="middle" x="1358.86" y="-83.1" font-family="Courier New" font-size="14.00">uint256: finalAmount (32)</text>
<polyline fill="none" stroke="black" points="1091.35,-74.9 1626.63,-74.9 "/>
<text text-anchor="middle" x="1212.56" y="-58.3" font-family="Courier New" font-size="14.00">unallocated (12)</text>
<polyline fill="none" stroke="black" points="1333.77,-50.1 1333.77,-74.9 "/>
<text text-anchor="middle" x="1480.18" y="-58.3" font-family="Courier New" font-size="14.00">address: receiver (20)</text>
<polyline fill="none" stroke="black" points="1091.35,-50.1 1626.63,-50.1 "/>
<text text-anchor="middle" x="1358.77" y="-33.5" font-family="Courier New" font-size="14.00">uint256: initialAmount (32)</text>
<polyline fill="none" stroke="black" points="1091.35,-25.3 1626.63,-25.3 "/>
<text text-anchor="middle" x="1223.06" y="-8.7" font-family="Courier New" font-size="14.00">unallocated (31)</text>
<polyline fill="none" stroke="black" points="1354.77,-0.5 1354.77,-25.3 "/>
<text text-anchor="middle" x="1490.68" y="-8.7" font-family="Courier New" font-size="14.00">bool: checked (1)</text>
</g>
<!-- 5&#45;&gt;1 -->
<g id="edge2" class="edge">
<title>5:17&#45;&gt;1</title>
<path fill="none" stroke="black" d="M1005.74,-525.1C1092.56,-525.1 987.06,-649.66 1041.74,-717.1 1042.23,-717.7 1042.72,-718.29 1043.21,-718.89"/>
<polygon fill="black" stroke="black" points="1040.58,-721.2 1049.79,-726.43 1045.85,-716.59 1040.58,-721.2"/>
</g>
<!-- 5&#45;&gt;2 -->
<g id="edge3" class="edge">
<title>5:18&#45;&gt;2</title>
<path fill="none" stroke="black" d="M1005.74,-500.1C1014.26,-500.1 1022.85,-500.4 1031.48,-500.97"/>
<polygon fill="black" stroke="black" points="1031.39,-504.48 1041.63,-501.77 1031.94,-497.5 1031.39,-504.48"/>
</g>
<!-- 5&#45;&gt;3 -->
<g id="edge4" class="edge">
<title>5:20&#45;&gt;3</title>
<path fill="none" stroke="black" d="M1005.74,-450.1C1014.26,-450.1 1022.85,-449.8 1031.48,-449.23"/>
<polygon fill="black" stroke="black" points="1031.94,-452.7 1041.63,-448.43 1031.39,-445.72 1031.94,-452.7"/>
</g>
<!-- 5&#45;&gt;4 -->
<g id="edge5" class="edge">
<title>5:21&#45;&gt;4</title>
<path fill="none" stroke="black" d="M1005.74,-426.1C1093,-426.1 986.82,-300.9 1041.74,-233.1 1042.23,-232.5 1042.72,-231.91 1043.21,-231.31"/>
<polygon fill="black" stroke="black" points="1045.85,-233.61 1049.79,-223.77 1040.58,-229 1045.85,-233.61"/>
</g>
</g>
</svg>
